<svg width="64" height="64" viewBox="0 0 64 64" fill="none" xmlns="http://www.w3.org/2000/svg">
<rect width="64" height="64" rx="16" fill="#D1E1F9"/>
<path d="M32 45.3334C30.1777 45.3334 28.4555 44.9834 26.8333 44.2834C25.2111 43.5834 23.7944 42.6279 22.5833 41.4167C21.3722 40.2056 20.4166 38.789 19.7166 37.1667C19.0166 35.5445 18.6666 33.8223 18.6666 32.0001C18.6666 30.1556 19.0166 28.4279 19.7166 26.8167C20.4166 25.2056 21.3722 23.7945 22.5833 22.5834C23.7944 21.3723 25.2111 20.4167 26.8333 19.7167C28.4555 19.0167 30.1777 18.6667 32 18.6667C33.8444 18.6667 35.5722 19.0167 37.1833 19.7167C38.7944 20.4167 40.2055 21.3723 41.4166 22.5834C42.6277 23.7945 43.5833 25.2056 44.2833 26.8167C44.9833 28.4279 45.3333 30.1556 45.3333 32.0001C45.3333 33.8223 44.9833 35.5445 44.2833 37.1667C43.5833 38.789 42.6277 40.2056 41.4166 41.4167C40.2055 42.6279 38.7944 43.5834 37.1833 44.2834C35.5722 44.9834 33.8444 45.3334 32 45.3334ZM32 42.6001C32.5777 41.8001 33.0777 40.9667 33.5 40.1001C33.9222 39.2334 34.2666 38.3112 34.5333 37.3334H29.4666C29.7333 38.3112 30.0777 39.2334 30.5 40.1001C30.9222 40.9667 31.4222 41.8001 32 42.6001ZM28.5333 42.0667C28.1333 41.3334 27.7833 40.5723 27.4833 39.7834C27.1833 38.9945 26.9333 38.1779 26.7333 37.3334H22.8C23.4444 38.4445 24.25 39.4112 25.2166 40.2334C26.1833 41.0556 27.2888 41.6667 28.5333 42.0667ZM35.4666 42.0667C36.7111 41.6667 37.8166 41.0556 38.7833 40.2334C39.75 39.4112 40.5555 38.4445 41.2 37.3334H37.2666C37.0666 38.1779 36.8166 38.9945 36.5166 39.7834C36.2166 40.5723 35.8666 41.3334 35.4666 42.0667ZM21.6666 34.6667H26.2C26.1333 34.2223 26.0833 33.7834 26.05 33.3501C26.0166 32.9167 26 32.4667 26 32.0001C26 31.5334 26.0166 31.0834 26.05 30.6501C26.0833 30.2167 26.1333 29.7779 26.2 29.3334H21.6666C21.5555 29.7779 21.4722 30.2167 21.4166 30.6501C21.3611 31.0834 21.3333 31.5334 21.3333 32.0001C21.3333 32.4667 21.3611 32.9167 21.4166 33.3501C21.4722 33.7834 21.5555 34.2223 21.6666 34.6667ZM28.8666 34.6667H35.1333C35.2 34.2223 35.25 33.7834 35.2833 33.3501C35.3166 32.9167 35.3333 32.4667 35.3333 32.0001C35.3333 31.5334 35.3166 31.0834 35.2833 30.6501C35.25 30.2167 35.2 29.7779 35.1333 29.3334H28.8666C28.8 29.7779 28.75 30.2167 28.7166 30.6501C28.6833 31.0834 28.6666 31.5334 28.6666 32.0001C28.6666 32.4667 28.6833 32.9167 28.7166 33.3501C28.75 33.7834 28.8 34.2223 28.8666 34.6667ZM37.8 34.6667H42.3333C42.4444 34.2223 42.5277 33.7834 42.5833 33.3501C42.6388 32.9167 42.6666 32.4667 42.6666 32.0001C42.6666 31.5334 42.6388 31.0834 42.5833 30.6501C42.5277 30.2167 42.4444 29.7779 42.3333 29.3334H37.8C37.8666 29.7779 37.9166 30.2167 37.95 30.6501C37.9833 31.0834 38 31.5334 38 32.0001C38 32.4667 37.9833 32.9167 37.95 33.3501C37.9166 33.7834 37.8666 34.2223 37.8 34.6667ZM37.2666 26.6667H41.2C40.5555 25.5556 39.75 24.589 38.7833 23.7667C37.8166 22.9445 36.7111 22.3334 35.4666 21.9334C35.8666 22.6667 36.2166 23.4279 36.5166 24.2167C36.8166 25.0056 37.0666 25.8223 37.2666 26.6667ZM29.4666 26.6667H34.5333C34.2666 25.689 33.9222 24.7667 33.5 23.9001C33.0777 23.0334 32.5777 22.2001 32 21.4001C31.4222 22.2001 30.9222 23.0334 30.5 23.9001C30.0777 24.7667 29.7333 25.689 29.4666 26.6667ZM22.8 26.6667H26.7333C26.9333 25.8223 27.1833 25.0056 27.4833 24.2167C27.7833 23.4279 28.1333 22.6667 28.5333 21.9334C27.2888 22.3334 26.1833 22.9445 25.2166 23.7667C24.25 24.589 23.4444 25.5556 22.8 26.6667Z" fill="#1B68E0"/>
</svg>
