<svg width="24" height="24" viewBox="0 0 24 24" fill="none" xmlns="http://www.w3.org/2000/svg">
<mask id="mask0_530_100" style="mask-type:alpha" maskUnits="userSpaceOnUse" x="0" y="0" width="24" height="24">
<rect width="24" height="24" fill="#D9D9D9"/>
</mask>
<g mask="url(#mask0_530_100)">
<path d="M19 11.9502C19 10.0002 18.3208 8.34603 16.9625 6.9877C15.6042 5.62936 13.95 4.9502 12 4.9502V2.9502C13.25 2.9502 14.4208 3.1877 15.5125 3.6627C16.6042 4.1377 17.5542 4.77936 18.3625 5.5877C19.1708 6.39603 19.8125 7.34603 20.2875 8.4377C20.7625 9.52936 21 10.7002 21 11.9502H19ZM15 11.9502C15 11.1169 14.7083 10.4085 14.125 9.8252C13.5417 9.24186 12.8333 8.9502 12 8.9502V6.9502C13.3833 6.9502 14.5625 7.4377 15.5375 8.4127C16.5125 9.3877 17 10.5669 17 11.9502H15ZM19.95 21.0002C17.8 21.0002 15.7042 20.521 13.6625 19.5627C11.6208 18.6044 9.8125 17.3377 8.2375 15.7627C6.6625 14.1877 5.39583 12.3794 4.4375 10.3377C3.47917 8.29603 3 6.2002 3 4.0502C3 3.7502 3.1 3.5002 3.3 3.3002C3.5 3.1002 3.75 3.0002 4.05 3.0002H8.1C8.33333 3.0002 8.54167 3.0752 8.725 3.2252C8.90833 3.3752 9.01667 3.56686 9.05 3.8002L9.7 7.3002C9.73333 7.53353 9.72917 7.74603 9.6875 7.9377C9.64583 8.12936 9.55 8.3002 9.4 8.4502L7 10.9002C7.7 12.1002 8.575 13.2252 9.625 14.2752C10.675 15.3252 11.8333 16.2335 13.1 17.0002L15.45 14.6502C15.6 14.5002 15.7958 14.3877 16.0375 14.3127C16.2792 14.2377 16.5167 14.2169 16.75 14.2502L20.2 14.9502C20.4333 15.0002 20.625 15.1127 20.775 15.2877C20.925 15.4627 21 15.6669 21 15.9002V19.9502C21 20.2502 20.9 20.5002 20.7 20.7002C20.5 20.9002 20.25 21.0002 19.95 21.0002Z" fill="white"/>
</g>
</svg>
